<svg xmlns="http://www.w3.org/2000/svg" xmlns:xlink="http://www.w3.org/1999/xlink" width="500" zoomAndPan="magnify" viewBox="0 0 375 93.749996" height="125" preserveAspectRatio="xMidYMid meet" version="1.0"><defs><g/><clipPath id="6a82b6b1dc"><path d="M 91 28 L 113 28 L 113 52 L 91 52 Z M 91 28 " clip-rule="nonzero"/></clipPath><clipPath id="105be55221"><path d="M 91.757812 46.949219 L 106.304688 28.199219 L 112.402344 32.929688 L 97.859375 51.679688 Z M 91.757812 46.949219 " clip-rule="nonzero"/></clipPath><clipPath id="9cad1bc664"><path d="M 91.757812 46.949219 L 106.285156 28.222656 L 112.382812 32.953125 L 97.859375 51.679688 Z M 91.757812 46.949219 " clip-rule="nonzero"/></clipPath><clipPath id="4acfb6b8f0"><path d="M 91 42 L 113 42 L 113 66 L 91 66 Z M 91 42 " clip-rule="nonzero"/></clipPath><clipPath id="62d749230a"><path d="M 97.800781 42.230469 L 112.394531 60.59375 L 106.351562 65.394531 L 91.757812 47.03125 Z M 97.800781 42.230469 " clip-rule="nonzero"/></clipPath><clipPath id="d33c4b9667"><path d="M 97.800781 42.230469 L 112.378906 60.574219 L 106.339844 65.378906 L 91.757812 47.03125 Z M 97.800781 42.230469 " clip-rule="nonzero"/></clipPath><clipPath id="40656f400d"><path d="M 89.070312 38.152344 L 106.273438 38.152344 L 106.273438 55.351562 L 89.070312 55.351562 Z M 89.070312 38.152344 " clip-rule="nonzero"/></clipPath><clipPath id="af3cc7f736"><path d="M 97.671875 38.152344 C 92.921875 38.152344 89.070312 42 89.070312 46.75 C 89.070312 51.5 92.921875 55.351562 97.671875 55.351562 C 102.421875 55.351562 106.273438 51.5 106.273438 46.75 C 106.273438 42 102.421875 38.152344 97.671875 38.152344 Z M 97.671875 38.152344 " clip-rule="nonzero"/></clipPath><clipPath id="259573f690"><path d="M 102.070312 19.621094 L 119.269531 19.621094 L 119.269531 36.820312 L 102.070312 36.820312 Z M 102.070312 19.621094 " clip-rule="nonzero"/></clipPath><clipPath id="e15283de71"><path d="M 110.671875 19.621094 C 105.921875 19.621094 102.070312 23.46875 102.070312 28.21875 C 102.070312 32.96875 105.921875 36.820312 110.671875 36.820312 C 115.421875 36.820312 119.269531 32.96875 119.269531 28.21875 C 119.269531 23.46875 115.421875 19.621094 110.671875 19.621094 Z M 110.671875 19.621094 " clip-rule="nonzero"/></clipPath><clipPath id="2f13d8ec7a"><path d="M 102.070312 56.777344 L 119.269531 56.777344 L 119.269531 73.980469 L 102.070312 73.980469 Z M 102.070312 56.777344 " clip-rule="nonzero"/></clipPath><clipPath id="5b36bcf9fc"><path d="M 110.671875 56.777344 C 105.921875 56.777344 102.070312 60.628906 102.070312 65.378906 C 102.070312 70.128906 105.921875 73.980469 110.671875 73.980469 C 115.421875 73.980469 119.269531 70.128906 119.269531 65.378906 C 119.269531 60.628906 115.421875 56.777344 110.671875 56.777344 Z M 110.671875 56.777344 " clip-rule="nonzero"/></clipPath><clipPath id="1b642c85d4"><path d="M 274.867188 71.601562 L 292.066406 71.601562 L 292.066406 88.800781 L 274.867188 88.800781 Z M 274.867188 71.601562 " clip-rule="nonzero"/></clipPath><clipPath id="c613a796f1"><path d="M 283.46875 71.601562 C 278.71875 71.601562 274.867188 75.453125 274.867188 80.203125 C 274.867188 84.953125 278.71875 88.800781 283.46875 88.800781 C 288.21875 88.800781 292.066406 84.953125 292.066406 80.203125 C 292.066406 75.453125 288.21875 71.601562 283.46875 71.601562 Z M 283.46875 71.601562 " clip-rule="nonzero"/></clipPath><clipPath id="a7664e581d"><path d="M 274.867188 4.699219 L 292.066406 4.699219 L 292.066406 21.898438 L 274.867188 21.898438 Z M 274.867188 4.699219 " clip-rule="nonzero"/></clipPath><clipPath id="4be727b069"><path d="M 283.46875 4.699219 C 278.71875 4.699219 274.867188 8.550781 274.867188 13.296875 C 274.867188 18.046875 278.71875 21.898438 283.46875 21.898438 C 288.21875 21.898438 292.066406 18.046875 292.066406 13.296875 C 292.066406 8.550781 288.21875 4.699219 283.46875 4.699219 Z M 283.46875 4.699219 " clip-rule="nonzero"/></clipPath><clipPath id="7f014ea195"><path d="M 246.390625 54.402344 L 263.589844 54.402344 L 263.589844 71.601562 L 246.390625 71.601562 Z M 246.390625 54.402344 " clip-rule="nonzero"/></clipPath><clipPath id="02acf66c76"><path d="M 254.988281 54.402344 C 250.242188 54.402344 246.390625 58.253906 246.390625 63.003906 C 246.390625 67.753906 250.242188 71.601562 254.988281 71.601562 C 259.738281 71.601562 263.589844 67.753906 263.589844 63.003906 C 263.589844 58.253906 259.738281 54.402344 254.988281 54.402344 Z M 254.988281 54.402344 " clip-rule="nonzero"/></clipPath><clipPath id="78ab973eeb"><path d="M 303.378906 54.402344 L 320.578125 54.402344 L 320.578125 71.601562 L 303.378906 71.601562 Z M 303.378906 54.402344 " clip-rule="nonzero"/></clipPath><clipPath id="52035917e1"><path d="M 311.980469 54.402344 C 307.230469 54.402344 303.378906 58.253906 303.378906 63.003906 C 303.378906 67.753906 307.230469 71.601562 311.980469 71.601562 C 316.730469 71.601562 320.578125 67.753906 320.578125 63.003906 C 320.578125 58.253906 316.730469 54.402344 311.980469 54.402344 Z M 311.980469 54.402344 " clip-rule="nonzero"/></clipPath><clipPath id="e7831ed156"><path d="M 246.390625 19.871094 L 263.589844 19.871094 L 263.589844 37.070312 L 246.390625 37.070312 Z M 246.390625 19.871094 " clip-rule="nonzero"/></clipPath><clipPath id="46a45e1cc3"><path d="M 254.988281 19.871094 C 250.242188 19.871094 246.390625 23.71875 246.390625 28.46875 C 246.390625 33.21875 250.242188 37.070312 254.988281 37.070312 C 259.738281 37.070312 263.589844 33.21875 263.589844 28.46875 C 263.589844 23.71875 259.738281 19.871094 254.988281 19.871094 Z M 254.988281 19.871094 " clip-rule="nonzero"/></clipPath><clipPath id="d7b4aee95a"><path d="M 303.378906 19.871094 L 320.578125 19.871094 L 320.578125 37.070312 L 303.378906 37.070312 Z M 303.378906 19.871094 " clip-rule="nonzero"/></clipPath><clipPath id="14f9be3fd9"><path d="M 311.980469 19.871094 C 307.230469 19.871094 303.378906 23.71875 303.378906 28.46875 C 303.378906 33.21875 307.230469 37.070312 311.980469 37.070312 C 316.730469 37.070312 320.578125 33.21875 320.578125 28.46875 C 320.578125 23.71875 316.730469 19.871094 311.980469 19.871094 Z M 311.980469 19.871094 " clip-rule="nonzero"/></clipPath><clipPath id="5d4de9464a"><path d="M 250.070312 34.230469 L 257.789062 34.230469 L 257.789062 57.929688 L 250.070312 57.929688 Z M 250.070312 34.230469 " clip-rule="nonzero"/></clipPath><clipPath id="db0b051f06"><path d="M 309.144531 33.5625 L 316.863281 33.5625 L 316.863281 57.261719 L 309.144531 57.261719 Z M 309.144531 33.5625 " clip-rule="nonzero"/></clipPath><clipPath id="4ec0a1f570"><path d="M 286 63 L 311 63 L 311 82 L 286 82 Z M 286 63 " clip-rule="nonzero"/></clipPath><clipPath id="92760b18cf"><path d="M 286.109375 74.917969 L 306.621094 62.984375 L 310.503906 69.65625 L 289.992188 81.589844 Z M 286.109375 74.917969 " clip-rule="nonzero"/></clipPath><clipPath id="bcb7254915"><path d="M 286.109375 74.917969 L 306.597656 63 L 310.476562 69.671875 L 289.992188 81.589844 Z M 286.109375 74.917969 " clip-rule="nonzero"/></clipPath><clipPath id="28037fdc8c"><path d="M 257 11 L 282 11 L 282 31 L 257 31 Z M 257 11 " clip-rule="nonzero"/></clipPath><clipPath id="9ec890040d"><path d="M 257.125 23.558594 L 277.636719 11.625 L 281.519531 18.296875 L 261.007812 30.230469 Z M 257.125 23.558594 " clip-rule="nonzero"/></clipPath><clipPath id="95a77aa842"><path d="M 257.125 23.558594 L 277.613281 11.640625 L 281.492188 18.3125 L 261.007812 30.230469 Z M 257.125 23.558594 " clip-rule="nonzero"/></clipPath><clipPath id="d4627e6d9c"><path d="M 256 62 L 281 62 L 281 82 L 256 82 Z M 256 62 " clip-rule="nonzero"/></clipPath><clipPath id="9ac6896e4a"><path d="M 276.671875 81.585938 L 256.191406 69.597656 L 260.089844 62.9375 L 280.570312 74.921875 Z M 276.671875 81.585938 " clip-rule="nonzero"/></clipPath><clipPath id="df528b9d7c"><path d="M 276.671875 81.585938 L 256.21875 69.613281 L 260.117188 62.953125 L 280.570312 74.921875 Z M 276.671875 81.585938 " clip-rule="nonzero"/></clipPath><clipPath id="af1a39b33d"><path d="M 286 11 L 311 11 L 311 31 L 286 31 Z M 286 11 " clip-rule="nonzero"/></clipPath><clipPath id="0c9838a742"><path d="M 306.558594 30.226562 L 286.078125 18.242188 L 289.976562 11.578125 L 310.457031 23.5625 Z M 306.558594 30.226562 " clip-rule="nonzero"/></clipPath><clipPath id="baece81101"><path d="M 306.558594 30.226562 L 286.105469 18.253906 L 290.003906 11.59375 L 310.457031 23.5625 Z M 306.558594 30.226562 " clip-rule="nonzero"/></clipPath></defs><g fill="#0054a6" fill-opacity="1"><g transform="translate(168.459165, 65.326461)"><g><path d="M 34.546875 -31.296875 L 13.859375 -31.296875 L 13.859375 -23.53125 L 32.53125 -23.53125 L 32.53125 -15.703125 L 13.859375 -15.703125 L 13.859375 -7.828125 L 35.15625 -7.828125 L 35.15625 0 L 3.90625 0 L 3.90625 -39.125 L 34.546875 -39.125 Z M 34.546875 -31.296875 "/></g></g></g><g fill="#0054a6" fill-opacity="1"><g transform="translate(206.131376, 65.326461)"><g><path d="M 32.921875 -31.296875 L 13.859375 -31.296875 L 13.859375 -22.25 L 31.40625 -22.25 L 31.40625 -14.421875 L 13.859375 -14.421875 L 13.859375 0 L 3.90625 0 L 3.90625 -39.125 L 32.921875 -39.125 Z M 32.921875 -31.296875 "/></g></g></g><g clip-path="url(#6a82b6b1dc)"><g clip-path="url(#105be55221)"><g clip-path="url(#9cad1bc664)"><path fill="#e61313" d="M 91.757812 46.949219 L 106.285156 28.222656 L 112.382812 32.953125 L 97.859375 51.679688 Z M 91.757812 46.949219 " fill-opacity="1" fill-rule="nonzero"/></g></g></g><g clip-path="url(#4acfb6b8f0)"><g clip-path="url(#62d749230a)"><g clip-path="url(#d33c4b9667)"><path fill="#e61313" d="M 97.800781 42.230469 L 112.375 60.570312 L 106.332031 65.371094 L 91.757812 47.03125 Z M 97.800781 42.230469 " fill-opacity="1" fill-rule="nonzero"/></g></g></g><g clip-path="url(#40656f400d)"><g clip-path="url(#af3cc7f736)"><path fill="#e61313" d="M 89.070312 38.152344 L 106.273438 38.152344 L 106.273438 55.351562 L 89.070312 55.351562 Z M 89.070312 38.152344 " fill-opacity="1" fill-rule="nonzero"/></g></g><g clip-path="url(#259573f690)"><g clip-path="url(#e15283de71)"><path fill="#e61313" d="M 102.070312 19.621094 L 119.269531 19.621094 L 119.269531 36.820312 L 102.070312 36.820312 Z M 102.070312 19.621094 " fill-opacity="1" fill-rule="nonzero"/></g></g><g clip-path="url(#2f13d8ec7a)"><g clip-path="url(#5b36bcf9fc)"><path fill="#e61313" d="M 102.070312 56.777344 L 119.269531 56.777344 L 119.269531 73.980469 L 102.070312 73.980469 Z M 102.070312 56.777344 " fill-opacity="1" fill-rule="nonzero"/></g></g><g fill="#0054a6" fill-opacity="1"><g transform="translate(55.137827, 65.326461)"><g><path d="M 13.859375 -8.328125 L 30.453125 -8.328125 L 30.453125 0 L 3.90625 0 L 3.90625 -39.125 L 13.859375 -39.125 Z M 13.859375 -8.328125 "/></g></g></g><g fill="#0054a6" fill-opacity="1"><g transform="translate(86.442714, 65.326461)"><g/></g></g><g fill="#0054a6" fill-opacity="1"><g transform="translate(99.41, 65.326461)"><g/></g></g><g fill="#0054a6" fill-opacity="1"><g transform="translate(112.377287, 65.326461)"><g/></g></g><g fill="#0054a6" fill-opacity="1"><g transform="translate(125.34769, 65.326461)"><g><path d="M 3.90625 -39.125 L 22.40625 -39.125 C 26.800781 -39.125 30.296875 -38.238281 32.890625 -36.46875 C 35.484375 -34.695312 36.78125 -32.320312 36.78125 -29.34375 C 36.78125 -27.289062 36.179688 -25.488281 34.984375 -23.9375 C 33.796875 -22.394531 32.15625 -21.328125 30.0625 -20.734375 C 32.53125 -20.253906 34.488281 -19.117188 35.9375 -17.328125 C 37.394531 -15.535156 38.125 -13.375 38.125 -10.84375 C 38.125 -7.53125 36.769531 -4.894531 34.0625 -2.9375 C 31.363281 -0.976562 27.703125 0 23.078125 0 L 3.90625 0 Z M 13.8125 -31.515625 L 13.8125 -23.46875 L 21.859375 -23.46875 C 23.304688 -23.46875 24.457031 -23.832031 25.3125 -24.5625 C 26.175781 -25.289062 26.609375 -26.285156 26.609375 -27.546875 C 26.609375 -28.773438 26.175781 -29.742188 25.3125 -30.453125 C 24.457031 -31.160156 23.304688 -31.515625 21.859375 -31.515625 Z M 13.8125 -16.3125 L 13.8125 -7.65625 L 21.859375 -7.65625 C 23.710938 -7.65625 25.171875 -8.046875 26.234375 -8.828125 C 27.296875 -9.609375 27.828125 -10.691406 27.828125 -12.078125 C 27.828125 -13.378906 27.296875 -14.410156 26.234375 -15.171875 C 25.171875 -15.929688 23.710938 -16.3125 21.859375 -16.3125 Z M 13.8125 -16.3125 "/></g></g></g><g fill="#0054a6" fill-opacity="1"><g transform="translate(266.558492, 65.326461)"><g><path d="M 3.90625 -39.125 L 20.953125 -39.125 C 25.953125 -39.125 29.828125 -37.941406 32.578125 -35.578125 C 35.335938 -33.210938 36.71875 -29.847656 36.71875 -25.484375 C 36.71875 -20.898438 35.335938 -17.34375 32.578125 -14.8125 C 29.828125 -12.28125 25.953125 -11.015625 20.953125 -11.015625 L 13.859375 -11.015625 L 13.859375 0 L 3.90625 0 Z M 13.859375 -31.296875 L 13.859375 -18.828125 L 20.453125 -18.828125 C 22.648438 -18.828125 24.34375 -19.367188 25.53125 -20.453125 C 26.726562 -21.535156 27.328125 -23.101562 27.328125 -25.15625 C 27.328125 -27.164062 26.726562 -28.691406 25.53125 -29.734375 C 24.34375 -30.773438 22.648438 -31.296875 20.453125 -31.296875 Z M 13.859375 -31.296875 "/></g></g></g><g clip-path="url(#1b642c85d4)"><g clip-path="url(#c613a796f1)"><path fill="#e61313" d="M 274.867188 71.601562 L 292.066406 71.601562 L 292.066406 88.800781 L 274.867188 88.800781 Z M 274.867188 71.601562 " fill-opacity="1" fill-rule="nonzero"/></g></g><g clip-path="url(#a7664e581d)"><g clip-path="url(#4be727b069)"><path fill="#e61313" d="M 274.867188 4.699219 L 292.066406 4.699219 L 292.066406 21.898438 L 274.867188 21.898438 Z M 274.867188 4.699219 " fill-opacity="1" fill-rule="nonzero"/></g></g><g clip-path="url(#7f014ea195)"><g clip-path="url(#02acf66c76)"><path fill="#e61313" d="M 246.390625 54.402344 L 263.589844 54.402344 L 263.589844 71.601562 L 246.390625 71.601562 Z M 246.390625 54.402344 " fill-opacity="1" fill-rule="nonzero"/></g></g><g clip-path="url(#78ab973eeb)"><g clip-path="url(#52035917e1)"><path fill="#e61313" d="M 303.378906 54.402344 L 320.578125 54.402344 L 320.578125 71.601562 L 303.378906 71.601562 Z M 303.378906 54.402344 " fill-opacity="1" fill-rule="nonzero"/></g></g><g clip-path="url(#e7831ed156)"><g clip-path="url(#46a45e1cc3)"><path fill="#e61313" d="M 246.390625 19.871094 L 263.589844 19.871094 L 263.589844 37.070312 L 246.390625 37.070312 Z M 246.390625 19.871094 " fill-opacity="1" fill-rule="nonzero"/></g></g><g clip-path="url(#d7b4aee95a)"><g clip-path="url(#14f9be3fd9)"><path fill="#e61313" d="M 303.378906 19.871094 L 320.578125 19.871094 L 320.578125 37.070312 L 303.378906 37.070312 Z M 303.378906 19.871094 " fill-opacity="1" fill-rule="nonzero"/></g></g><g clip-path="url(#5d4de9464a)"><path fill="#e61313" d="M 250.070312 57.929688 L 250.070312 34.230469 L 257.789062 34.230469 L 257.789062 57.929688 Z M 250.070312 57.929688 " fill-opacity="1" fill-rule="nonzero"/></g><g clip-path="url(#db0b051f06)"><path fill="#e61313" d="M 309.144531 57.261719 L 309.144531 33.5625 L 316.863281 33.5625 L 316.863281 57.261719 Z M 309.144531 57.261719 " fill-opacity="1" fill-rule="nonzero"/></g><g clip-path="url(#4ec0a1f570)"><g clip-path="url(#92760b18cf)"><g clip-path="url(#bcb7254915)"><path fill="#e61313" d="M 286.109375 74.917969 L 306.59375 63 L 310.476562 69.671875 L 289.992188 81.589844 Z M 286.109375 74.917969 " fill-opacity="1" fill-rule="nonzero"/></g></g></g><g clip-path="url(#28037fdc8c)"><g clip-path="url(#9ec890040d)"><g clip-path="url(#95a77aa842)"><path fill="#e61313" d="M 257.125 23.558594 L 277.609375 11.640625 L 281.492188 18.3125 L 261.007812 30.230469 Z M 257.125 23.558594 " fill-opacity="1" fill-rule="nonzero"/></g></g></g><g clip-path="url(#d4627e6d9c)"><g clip-path="url(#9ac6896e4a)"><g clip-path="url(#df528b9d7c)"><path fill="#e61313" d="M 276.671875 81.585938 L 256.21875 69.613281 L 260.117188 62.953125 L 280.570312 74.921875 Z M 276.671875 81.585938 " fill-opacity="1" fill-rule="nonzero"/></g></g></g><g clip-path="url(#af1a39b33d)"><g clip-path="url(#0c9838a742)"><g clip-path="url(#baece81101)"><path fill="#e61313" d="M 306.558594 30.226562 L 286.105469 18.253906 L 290.003906 11.59375 L 310.457031 23.5625 Z M 306.558594 30.226562 " fill-opacity="1" fill-rule="nonzero"/></g></g></g></svg>